<?xml version="1.0" standalone="no"?>
<!DOCTYPE svg PUBLIC "-//W3C//DTD SVG 20010904//EN"
 "http://www.w3.org/TR/2001/REC-SVG-20010904/DTD/svg10.dtd">
<svg version="1.0" xmlns="http://www.w3.org/2000/svg"
 width="485.000000pt" height="480.000000pt" viewBox="0 0 485.000000 480.000000"
 preserveAspectRatio="xMidYMid meet">

<g transform="translate(0.000000,480.000000) scale(0.100000,-0.100000)"
fill="#000000" stroke="none">
<path d="M2065 4780 c-765 -121 -1426 -604 -1776 -1295 -235 -466 -310 -999
-214 -1519 175 -948 912 -1703 1860 -1906 131 -28 313 -50 416 -50 l90 0 -6
48 c-28 207 -62 273 -236 452 -143 147 -180 208 -195 326 -7 61 15 159 51 221
14 23 79 98 145 168 162 171 208 253 229 415 7 51 7 76 0 81 -6 3 -41 9 -78
13 -228 21 -452 193 -549 422 -12 29 -29 94 -38 145 -44 254 72 524 288 671
102 69 242 117 339 118 l46 0 7 73 c15 161 69 262 231 433 127 135 150 166
177 243 16 43 19 73 16 131 -7 118 -42 179 -192 338 -69 72 -137 152 -152 178
-41 70 -71 161 -79 242 l-7 72 -132 -1 c-72 -1 -180 -9 -241 -19z"/>
</g>
</svg>
